<?xml version="1.0" encoding="UTF-8"?>
<svg id="Logo" xmlns="http://www.w3.org/2000/svg" viewBox="0 0 327.79 49.96">
  <defs>
    <style>
      .cls-1 {
        fill: #ccc;
      }

      .cls-2 {
        fill: #fff;
      }

      .cls-3 {
        fill: #999;
      }

      .cls-4 {
        fill: #4d4d4d;
      }
    </style>
  </defs>
  <g>
    <rect class="cls-3" x="24.98" y="8.33" width="8.33" height="8.33"/>
    <rect class="cls-3" x="8.33" y="24.98" width="8.33" height="8.33"/>
    <polygon class="cls-3" points="24.98 33.31 16.65 33.31 16.65 41.63 24.98 41.63 33.31 41.63 33.31 33.31 33.31 24.98 24.98 24.98 24.98 33.31"/>
    <rect class="cls-3" x="66.61" y="24.98" width="8.33" height="8.33"/>
  </g>
  <g>
    <rect x="49.96" y="8.33" width="8.33" height="8.33"/>
    <rect x="33.31" y="24.98" width="8.33" height="8.33"/>
    <rect x="49.96" y="24.98" width="8.33" height="8.33"/>
    <rect x="33.31" y="8.33" width="8.33" height="8.33"/>
  </g>
  <g>
    <rect class="cls-1" x="58.29" y="16.65" width="8.33" height="8.33"/>
    <polygon class="cls-1" points="16.65 24.98 16.65 33.31 24.98 33.31 24.98 24.98 24.98 16.65 16.65 16.65 16.65 24.98"/>
  </g>
  <polygon class="cls-2" points="49.96 16.65 49.96 8.33 41.63 8.33 41.63 16.65 33.31 16.65 33.31 24.98 41.63 24.98 41.63 33.31 49.96 33.31 49.96 24.98 58.29 24.98 58.29 16.65 49.96 16.65"/>
  <g>
    <rect class="cls-4" x="24.98" y="16.65" width="8.33" height="8.33"/>
    <rect class="cls-4" x="41.63" width="8.33" height="8.33"/>
    <rect class="cls-4" x="16.65" y="8.33" width="8.33" height="8.33"/>
    <rect class="cls-4" x="58.29" y="24.98" width="8.33" height="8.33"/>
    <rect class="cls-4" y="33.31" width="8.33" height="8.33"/>
    <polygon class="cls-4" points="41.63 33.31 41.63 41.63 41.63 49.96 49.96 49.96 49.96 41.63 58.29 41.63 58.29 33.31 49.96 33.31 41.63 33.31"/>
  </g>
  <g>
    <g>
      <path class="cls-4" d="M133.5,21.3h-.09l-5.56,19.97c-.05.17-.21.3-.39.3h-9.48c-.18,0-.34-.12-.39-.29l-9.63-32.4c-.08-.26.12-.52.39-.52h8.92c.19,0,.35.13.39.31l5.35,21.43h.09l5.79-21.44c.05-.18.21-.3.39-.3h8.27c.18,0,.34.12.39.3l5.96,21.49h.09l5.04-21.47c.04-.18.21-.31.39-.31h8.61c.27,0,.46.26.39.51l-9.32,32.4c-.05.17-.21.29-.39.29h-9.08c-.18,0-.34-.12-.39-.29l-5.74-19.98Z"/>
      <path class="cls-4" d="M96.65,20.59c-2.62-.93-4.09-1.47-4.09-2.62s1.33-1.96,3.96-1.96,5.49.77,7.61,1.92c.32.17.69-.12.58-.46l-2.56-8.61c-.04-.13-.14-.23-.26-.27-1.82-.58-3.88-.93-6.08-.93-8.18,0-12.76,4.76-12.76,10.58,0,6.45,5.65,8.76,9.2,10.05,2.71.98,4.98,1.69,4.98,3.29,0,1.24-1.38,2.36-4.36,2.36-3.22,0-6.54-1.3-8.92-3.03-.26-.19-.63,0-.63.33v7.94c0,.14.07.27.18.34,2.46,1.58,6.32,2.77,10.53,2.77,8.36,0,13.11-4.67,13.11-10.98,0-7.07-6.05-9.16-10.49-10.71Z"/>
      <path class="cls-4" d="M162.42,8.37h8.88c.22,0,.4.18.4.4v32.4c0,.22-.18.4-.4.4h-8.88c-.22,0-.4-.18-.4-.4V8.77c0-.22.18-.4.4-.4Z"/>
      <path class="cls-4" d="M198.92,10.21v7.56c0,.31-.33.51-.6.35-2.13-1.26-5.31-2.1-7.93-2.1s-3.96.84-3.96,1.96,1.47,1.69,4.09,2.62c4.45,1.56,10.49,3.65,10.49,10.71,0,6.31-4.76,10.98-13.11,10.98-4.21,0-8.07-1.18-10.53-2.77-.12-.07-.18-.2-.18-.34v-7.94c0-.33.37-.52.63-.33,2.38,1.72,5.71,3.03,8.92,3.03,2.98,0,4.36-1.11,4.36-2.36,0-1.6-2.27-2.31-4.98-3.29-3.56-1.29-9.2-3.6-9.2-10.05,0-5.82,4.58-10.58,12.76-10.58,3.5,0,6.66.88,9.04,2.19.13.07.21.21.21.36Z"/>
      <path class="cls-4" d="M226.52,10.21v7.56c0,.31-.33.51-.6.35-2.13-1.26-5.31-2.1-7.93-2.1s-3.96.84-3.96,1.96,1.47,1.69,4.09,2.62c4.45,1.56,10.49,3.65,10.49,10.71,0,6.31-4.76,10.98-13.11,10.98-4.21,0-8.07-1.18-10.53-2.77-.12-.07-.18-.2-.18-.34v-7.94c0-.33.37-.52.63-.33,2.38,1.72,5.71,3.03,8.92,3.03,2.98,0,4.36-1.11,4.36-2.36,0-1.6-2.27-2.31-4.98-3.29-3.56-1.29-9.2-3.6-9.2-10.05,0-5.82,4.58-10.58,12.76-10.58,3.5,0,6.66.88,9.04,2.19.13.07.21.21.21.36Z"/>
      <path class="cls-4" d="M266.62,8.37h22.13c.22,0,.4.18.4.4v7.82c0,.22-.18.4-.4.4h-12.44c-.22,0-.4.18-.4.4v3.19c0,.22.18.4.4.4h11.11c.22,0,.4.18.4.4v7.02c0,.22-.18.4-.4.4h-11.11c-.22,0-.4.18-.4.4v3.33c0,.22.18.4.4.4h12.44c.22,0,.4.18.4.4v7.82c0,.22-.18.4-.4.4h-22.13c-.22,0-.4-.18-.4-.4V8.77c0-.22.18-.4.4-.4Z"/>
      <path class="cls-4" d="M310.14,7.52c9.96,0,17.65,7.16,17.65,17.42s-7.69,17.47-17.65,17.47-17.65-7.2-17.65-17.47,7.78-17.42,17.65-17.42ZM318.01,24.95c0-5.51-3.87-8.62-7.87-8.62s-7.87,3.11-7.87,8.62,3.82,8.67,7.87,8.67,7.87-3.11,7.87-8.67Z"/>
    </g>
    <path class="cls-4" d="M249.26,33.71c1.19,0,2.26-.26,3.16-.65.14-.06.23-.2.23-.35v-8.62c0-.21.17-.38.38-.38h8c.21,0,.38.17.38.38v14.28c0,.13-.06.25-.16.32-3.22,2.25-7.17,3.76-12.16,3.76-9.57,0-17.8-6.72-17.8-17.45s8.32-17.49,17.8-17.49c4.34,0,7.8,1.06,10.48,2.56.12.07.2.2.2.34v8.36c0,.31-.35.48-.61.3-2.74-1.92-6.04-2.57-8.65-2.57-5.96,0-9.43,3.96-9.43,8.72s3.43,8.5,8.19,8.5Z"/>
  </g>
</svg>