<?xml version="1.0" encoding="UTF-8"?>
<svg id="Logo" xmlns="http://www.w3.org/2000/svg" viewBox="0 0 267.62 101.15">
  <defs>
    <style>
      .cls-1 {
        fill: #e28054;
      }

      .cls-2 {
        fill: #b5ccd2;
      }

      .cls-3 {
        fill: #1d6c85;
      }

      .cls-4 {
        fill: #fff;
      }

      .cls-5 {
        fill: #d4311f;
      }
    </style>
  </defs>
  <g>
    <rect class="cls-1" x="28.75" y="9.58" width="9.58" height="9.58"/>
    <rect class="cls-1" x="9.58" y="28.75" width="9.58" height="9.58"/>
    <polygon class="cls-1" points="28.75 38.33 19.17 38.33 19.17 47.92 28.75 47.92 38.33 47.92 38.33 38.33 38.33 28.75 28.75 28.75 28.75 38.33"/>
    <rect class="cls-1" x="76.67" y="28.75" width="9.58" height="9.58"/>
  </g>
  <g>
    <rect class="cls-5" x="57.5" y="9.58" width="9.58" height="9.58"/>
    <rect class="cls-5" x="38.33" y="28.75" width="9.58" height="9.58"/>
    <rect class="cls-5" x="57.5" y="28.75" width="9.58" height="9.58"/>
    <rect class="cls-5" x="38.33" y="9.58" width="9.58" height="9.58"/>
  </g>
  <g>
    <rect class="cls-2" x="67.08" y="19.17" width="9.58" height="9.58"/>
    <polygon class="cls-2" points="19.17 28.75 19.17 38.33 28.75 38.33 28.75 28.75 28.75 19.17 19.17 19.17 19.17 28.75"/>
  </g>
  <polygon class="cls-4" points="57.5 19.17 57.5 9.58 47.92 9.58 47.92 19.17 38.33 19.17 38.33 28.75 47.92 28.75 47.92 38.33 57.5 38.33 57.5 28.75 67.08 28.75 67.08 19.17 57.5 19.17"/>
  <g>
    <rect class="cls-3" x="28.75" y="19.17" width="9.58" height="9.58"/>
    <rect class="cls-3" x="47.92" width="9.58" height="9.58"/>
    <rect class="cls-3" x="19.17" y="9.58" width="9.58" height="9.58"/>
    <rect class="cls-3" x="67.08" y="28.75" width="9.58" height="9.58"/>
    <rect class="cls-3" y="38.33" width="9.58" height="9.58"/>
    <polygon class="cls-3" points="47.92 38.33 47.92 47.92 47.92 57.5 57.5 57.5 57.5 47.92 67.08 47.92 67.08 38.33 57.5 38.33 47.92 38.33"/>
  </g>
  <g>
    <path class="cls-3" d="M73.33,80.02h-.09l-5.56,19.97c-.05.17-.21.3-.39.3h-9.48c-.18,0-.34-.12-.39-.29l-9.63-32.4c-.08-.26.12-.52.39-.52h8.92c.19,0,.35.13.39.31l5.35,21.43h.09l5.79-21.44c.05-.18.21-.3.39-.3h8.27c.18,0,.34.12.39.3l5.96,21.49h.09l5.04-21.47c.04-.18.21-.31.39-.31h8.61c.27,0,.46.26.39.51l-9.32,32.4c-.05.17-.21.29-.39.29h-9.08c-.18,0-.34-.12-.39-.29l-5.74-19.98Z"/>
    <path class="cls-3" d="M36.48,79.31c-2.62-.93-4.09-1.47-4.09-2.62s1.33-1.96,3.96-1.96,5.49.77,7.61,1.92c.32.17.69-.12.58-.46l-2.56-8.61c-.04-.13-.14-.23-.26-.27-1.82-.58-3.88-.93-6.08-.93-8.18,0-12.76,4.76-12.76,10.58,0,6.45,5.65,8.76,9.2,10.05,2.71.98,4.98,1.69,4.98,3.29,0,1.24-1.38,2.36-4.36,2.36-3.22,0-6.54-1.3-8.92-3.03-.26-.19-.63,0-.63.33v7.94c0,.14.07.27.18.34,2.46,1.58,6.32,2.77,10.53,2.77,8.36,0,13.11-4.67,13.11-10.98,0-7.07-6.05-9.16-10.49-10.71Z"/>
    <path class="cls-3" d="M102.25,67.08h8.88c.22,0,.4.18.4.4v32.4c0,.22-.18.4-.4.4h-8.88c-.22,0-.4-.18-.4-.4v-32.4c0-.22.18-.4.4-.4Z"/>
    <path class="cls-3" d="M138.75,68.92v7.56c0,.31-.33.51-.6.35-2.13-1.26-5.31-2.1-7.93-2.1s-3.96.84-3.96,1.96,1.47,1.69,4.09,2.62c4.45,1.56,10.49,3.65,10.49,10.71,0,6.31-4.76,10.98-13.11,10.98-4.21,0-8.07-1.18-10.53-2.77-.12-.07-.18-.2-.18-.34v-7.94c0-.33.37-.52.63-.33,2.38,1.72,5.71,3.03,8.92,3.03,2.98,0,4.36-1.11,4.36-2.36,0-1.6-2.27-2.31-4.98-3.29-3.56-1.29-9.2-3.6-9.2-10.05,0-5.82,4.58-10.58,12.76-10.58,3.5,0,6.66.88,9.04,2.19.13.07.21.21.21.36Z"/>
    <path class="cls-3" d="M166.35,68.92v7.56c0,.31-.33.51-.6.35-2.13-1.26-5.31-2.1-7.93-2.1s-3.96.84-3.96,1.96,1.47,1.69,4.09,2.62c4.45,1.56,10.49,3.65,10.49,10.71,0,6.31-4.76,10.98-13.11,10.98-4.21,0-8.07-1.18-10.53-2.77-.12-.07-.18-.2-.18-.34v-7.94c0-.33.37-.52.63-.33,2.38,1.72,5.71,3.03,8.92,3.03,2.98,0,4.36-1.11,4.36-2.36,0-1.6-2.27-2.31-4.98-3.29-3.56-1.29-9.2-3.6-9.2-10.05,0-5.82,4.58-10.58,12.76-10.58,3.5,0,6.66.88,9.04,2.19.13.07.21.21.21.36Z"/>
    <path class="cls-3" d="M206.45,67.08h22.13c.22,0,.4.18.4.4v7.82c0,.22-.18.4-.4.4h-12.44c-.22,0-.4.18-.4.4v3.19c0,.22.18.4.4.4h11.11c.22,0,.4.18.4.4v7.02c0,.22-.18.4-.4.4h-11.11c-.22,0-.4.18-.4.4v3.33c0,.22.18.4.4.4h12.44c.22,0,.4.18.4.4v7.82c0,.22-.18.4-.4.4h-22.13c-.22,0-.4-.18-.4-.4v-32.4c0-.22.18-.4.4-.4Z"/>
    <path class="cls-3" d="M249.98,66.24c9.96,0,17.65,7.16,17.65,17.42s-7.69,17.47-17.65,17.47-17.65-7.2-17.65-17.47,7.78-17.42,17.65-17.42ZM257.84,83.66c0-5.51-3.87-8.62-7.87-8.62s-7.87,3.11-7.87,8.62,3.82,8.67,7.87,8.67,7.87-3.11,7.87-8.67Z"/>
  </g>
  <path class="cls-3" d="M189.09,92.43c1.19,0,2.26-.26,3.16-.65.14-.06.23-.2.23-.35v-8.62c0-.21.17-.38.38-.38h8c.21,0,.38.17.38.38v14.28c0,.13-.06.25-.16.32-3.22,2.25-7.17,3.76-12.16,3.76-9.57,0-17.8-6.72-17.8-17.45s8.32-17.49,17.8-17.49c4.34,0,7.8,1.06,10.48,2.56.12.07.2.2.2.34v8.36c0,.31-.35.48-.61.3-2.74-1.92-6.04-2.57-8.65-2.57-5.96,0-9.43,3.96-9.43,8.72s3.43,8.5,8.19,8.5Z"/>
</svg>