<svg viewBox="0 0 16 16" fill="none" xmlns="http://www.w3.org/2000/svg">
  <g clip-path="url(#clip0_12163_2173)">
    <path
      d="M4.05314 6.33317L1.71981 7.39984C1.60528 7.45367 1.50844 7.539 1.44061 7.64584C1.37277 7.75268 1.33675 7.87662 1.33675 8.00317C1.33675 8.12972 1.37277 8.25366 1.44061 8.3605C1.50844 8.46734 1.60528 8.55267 1.71981 8.6065L7.45314 11.2132C7.62594 11.2914 7.81345 11.3319 8.00314 11.3319C8.19283 11.3319 8.38034 11.2914 8.55314 11.2132L14.2731 8.61317C14.3914 8.56101 14.492 8.47557 14.5626 8.36727C14.6332 8.25896 14.6708 8.13246 14.6708 8.00317C14.6708 7.87388 14.6332 7.74738 14.5626 7.63907C14.492 7.53077 14.3914 7.44533 14.2731 7.39317L11.9398 6.33317M4.05314 9.6665L1.71981 10.7332C1.60528 10.787 1.50844 10.8723 1.44061 10.9792C1.37277 11.086 1.33675 11.2099 1.33675 11.3365C1.33675 11.4631 1.37277 11.587 1.44061 11.6938C1.50844 11.8007 1.60528 11.886 1.71981 11.9398L7.45314 14.5465C7.62594 14.6248 7.81345 14.6652 8.00314 14.6652C8.19283 14.6652 8.38034 14.6248 8.55314 14.5465L14.2731 11.9465C14.3914 11.8943 14.492 11.8089 14.5626 11.7006C14.6332 11.5923 14.6708 11.4658 14.6708 11.3365C14.6708 11.2072 14.6332 11.0807 14.5626 10.9724C14.492 10.8641 14.3914 10.7787 14.2731 10.7265L11.9398 9.6665M8.55315 1.45325C8.37944 1.37401 8.19074 1.33301 7.99981 1.33301C7.80889 1.33301 7.62019 1.37401 7.44648 1.45325L1.73315 4.05325C1.61485 4.10541 1.51427 4.19084 1.44366 4.29915C1.37304 4.40746 1.33545 4.53396 1.33545 4.66325C1.33545 4.79254 1.37304 4.91904 1.44366 5.02734C1.51427 5.13565 1.61485 5.22108 1.73315 5.27325L7.45315 7.87991C7.62685 7.95915 7.81555 8.00015 8.00648 8.00015C8.19741 8.00015 8.3861 7.95915 8.55981 7.87991L14.2798 5.27991C14.3981 5.22775 14.4987 5.14231 14.5693 5.03401C14.6399 4.9257 14.6775 4.7992 14.6775 4.66991C14.6775 4.54062 14.6399 4.41412 14.5693 4.30582C14.4987 4.19751 14.3981 4.11208 14.2798 4.05991L8.55315 1.45325Z"
      stroke-width="1.33" stroke-linecap="round" stroke-linejoin="round" />
  </g>
  <defs>
    <clipPath id="clip0_12163_2173">
      <rect width="16" height="16" fill="white" />
    </clipPath>
  </defs>
</svg>
