<svg width="16" height="16" viewBox="0 0 16 16" fill="none" xmlns="http://www.w3.org/2000/svg">
<path d="M10 3.84247C9.79312 3.84247 9.58907 3.79433 9.404 3.70185L6.596 2.29785C6.41094 2.20537 6.20689 2.15723 6 2.15723M10 3.84247C10.2069 3.84247 10.4109 3.79433 10.596 3.70185L13.0353 2.48185C13.1371 2.43102 13.2501 2.40705 13.3637 2.41223C13.4773 2.4174 13.5876 2.45154 13.6843 2.5114C13.781 2.57126 13.8607 2.65486 13.916 2.75424C13.9713 2.85361 14.0002 2.96547 14 3.07918V11.5885C13.9999 11.7123 13.9654 11.8336 13.9003 11.9389C13.8352 12.0441 13.7421 12.1292 13.6313 12.1845L10.596 13.7025C10.4109 13.795 10.2069 13.8431 10 13.8431C9.79312 13.8431 9.58907 13.795 9.404 13.7025L6.596 12.2985C6.41094 12.206 6.20689 12.1579 6 12.1579C5.79312 12.1579 5.58907 12.206 5.404 12.2985L2.96467 13.5185C2.8629 13.5694 2.74982 13.5933 2.63617 13.5881C2.52253 13.5829 2.41211 13.5487 2.31541 13.4888C2.21872 13.4288 2.13898 13.3452 2.08377 13.2457C2.02856 13.1462 1.99972 13.0343 2 12.9205V4.41185C2.00007 4.28807 2.03459 4.16676 2.0997 4.0615C2.16482 3.95623 2.25795 3.87118 2.36867 3.81585L5.404 2.29785C5.58907 2.20537 5.79312 2.15723 6 2.15723M10 3.84247L10 13.8424M6 2.15723L6 12.1572" stroke="#18181B" stroke-width="1.33" stroke-linecap="round" stroke-linejoin="round"/>
</svg>
