<svg width="12" height="16" viewBox="0 0 12 16" fill="none" xmlns="http://www.w3.org/2000/svg">
<path d="M11.3346 6.66683C11.3346 10.6668 6.0013 14.6668 6.0013 14.6668C6.0013 14.6668 0.667969 10.6668 0.667969 6.66683C0.667969 5.25234 1.22987 3.89579 2.23007 2.89559C3.23026 1.8954 4.58681 1.3335 6.0013 1.3335C7.41579 1.3335 8.77234 1.8954 9.77254 2.89559C10.7727 3.89579 11.3346 5.25234 11.3346 6.66683Z" stroke="#18181B" stroke-width="1.33" stroke-linecap="round" stroke-linejoin="round"/>
<path d="M6.0013 8.66683C7.10587 8.66683 8.0013 7.7714 8.0013 6.66683C8.0013 5.56226 7.10587 4.66683 6.0013 4.66683C4.89673 4.66683 4.0013 5.56226 4.0013 6.66683C4.0013 7.7714 4.89673 8.66683 6.0013 8.66683Z" stroke="#18181B" stroke-width="1.33" stroke-linecap="round" stroke-linejoin="round"/>
</svg>
